<svg width="772.6999267578125px" height="150.79999999999998px" xmlns="http://www.w3.org/2000/svg" viewBox="-136.34996337890624 -0.3999999999999915 772.6999267578125 150.79999999999998" style="background: rgba(0, 0, 0, 0);" preserveAspectRatio="xMidYMid"><defs><linearGradient id="editing-outline-gradient" x1="-0.41354545764260087" x2="1.4135454576426008" y1="0.09326335692419985" y2="0.9067366430758002"><stop offset="0" stop-color="#ffffff"></stop><stop offset="1" stop-color="#ffffff"></stop></linearGradient><filter id="editing-outline" x="-100%" y="-100%" width="300%" height="300%"><feMorphology in="SourceGraphic" operator="dilate" radius="3" result="outline"></feMorphology><feComposite operator="out" in="outline" in2="SourceAlpha"></feComposite></filter></defs><g filter="url(#editing-outline)"><g transform="translate(-27.34503149986267, 108.56500053405762)"><path d="M2.43 0L2.43-54.98L16.96-54.98L16.96-54.98Q23.55-54.98 26.37-50.72L26.37-50.72L26.37-50.72Q29.18-46.46 29.18-38.27L29.18-38.27L29.18-38.27Q29.18-30.08 26.69-25.92L26.69-25.92L26.69-25.92Q24.19-21.76 17.73-21.76L17.73-21.76L13.25-21.76L13.25 0L2.43 0ZM13.25-31.68L13.89-31.68L13.89-31.68Q15.87-31.68 16.80-32.42L16.80-32.42L16.80-32.42Q17.73-33.15 18.02-34.53L18.02-34.53L18.02-34.53Q18.30-35.90 18.30-38.46L18.30-38.46L18.30-38.46Q18.30-41.92 17.54-43.46L17.54-43.46L17.54-43.46Q16.77-44.99 14.46-44.99L14.46-44.99L13.25-44.99L13.25-31.68ZM40.96 0.51L40.96 0.51Q35.52 0.51 33.50-3.10L33.50-3.10L33.50-3.10Q31.49-6.72 31.49-13.44L31.49-13.44L31.49-13.44Q31.49-18.94 32.93-21.89L32.93-21.89L32.93-21.89Q34.37-24.83 36.93-26.21L36.93-26.21L36.93-26.21Q39.49-27.58 44.74-29.25L44.74-29.25L47.81-30.27L47.81-30.40L47.81-35.07L47.81-35.07Q47.81-36.93 47.07-37.92L47.07-37.92L47.07-37.92Q46.34-38.91 45.31-38.91L45.31-38.91L45.31-38.91Q44.42-38.91 43.74-38.08L43.74-38.08L43.74-38.08Q43.07-37.25 43.07-35.84L43.07-35.84L43.07-33.02L32.19-33.02L32.19-34.56L32.19-34.56Q32.19-41.47 35.42-44.42L35.42-44.42L35.42-44.42Q38.66-47.36 45.95-47.36L45.95-47.36L45.95-47.36Q51.78-47.36 55.42-44.32L55.42-44.32L55.42-44.32Q59.07-41.28 59.07-35.71L59.07-35.71L59.07 0L47.94 0L47.94-5.57L47.94-5.57Q47.10-2.69 45.28-1.09L45.28-1.09L45.28-1.09Q43.46 0.51 40.96 0.51L40.96 0.51ZM45.38-8.19L45.38-8.19Q46.66-8.19 47.20-9.25L47.20-9.25L47.20-9.25Q47.74-10.30 47.74-11.84L47.74-11.84L47.74-24.90L47.74-24.90Q45.25-23.94 44.06-22.46L44.06-22.46L44.06-22.46Q42.88-20.99 42.88-18.37L42.88-18.37L42.88-12.35L42.88-12.35Q42.88-8.19 45.38-8.19L45.38-8.19ZM63.36 0L63.36-46.85L74.56-46.85L74.56-41.66L74.56-41.66Q75.39-44.42 77.47-45.92L77.47-45.92L77.47-45.92Q79.55-47.42 82.62-47.42L82.62-47.42L82.62-38.08L82.62-38.08Q80.26-38.08 77.41-37.41L77.41-37.41L77.41-37.41Q74.56-36.74 74.56-35.84L74.56-35.84L74.56 0L63.36 0ZM96.45 0L85.38 0L85.38-55.30L96.45-55.30L96.45-30.72L101.82-46.85L113.41-46.85L106.37-26.50L115.33 0L103.42 0L96.45-22.08L96.45 0ZM130.43 0.51L130.43 0.51Q116.42 0.51 116.42-14.02L116.42-14.02L116.42-32.83L116.42-32.83Q116.42-39.49 120.16-43.42L120.16-43.42L120.16-43.42Q123.90-47.36 130.43-47.36L130.43-47.36L130.43-47.36Q136.96-47.36 140.70-43.42L140.70-43.42L140.70-43.42Q144.45-39.49 144.45-32.83L144.45-32.83L144.45-14.02L144.45-14.02Q144.45 0.51 130.43 0.51L130.43 0.51ZM130.43-8.13L130.43-8.13Q131.78-8.13 132.42-9.09L132.42-9.09L132.42-9.09Q133.06-10.05 133.06-11.71L133.06-11.71L133.06-34.62L133.06-34.62Q133.06-38.72 130.43-38.72L130.43-38.72L130.43-38.72Q127.81-38.72 127.81-34.62L127.81-34.62L127.81-11.71L127.81-11.71Q127.81-10.05 128.45-9.09L128.45-9.09L128.45-9.09Q129.09-8.13 130.43-8.13L130.43-8.13ZM157.63 0.51L157.63 0.51Q152.38 0.51 150.43-2.62L150.43-2.62L150.43-2.62Q148.48-5.76 148.48-11.97L148.48-11.97L148.48-46.85L159.74-46.85L159.74-14.21L159.74-14.21Q159.74-13.76 159.74-11.81L159.74-11.81L159.74-11.81Q159.74-9.86 160.35-9.06L160.35-9.06L160.35-9.06Q160.96-8.26 162.24-8.26L162.24-8.26L162.24-8.26Q163.97-8.26 164.42-9.70L164.42-9.70L164.42-9.70Q164.86-11.14 164.86-13.82L164.86-13.82L164.86-14.21L164.93-46.85L176.06-46.85L176.06 0L164.86 0L164.86-4.99L164.86-4.99Q163.71-2.05 162.18-0.77L162.18-0.77L162.18-0.77Q160.64 0.51 157.63 0.51L157.63 0.51ZM180.54 0L180.54-46.85L191.74-46.85L191.74-41.66L191.74-41.66Q192.58-44.42 194.66-45.92L194.66-45.92L194.66-45.92Q196.74-47.42 199.81-47.42L199.81-47.42L199.81-38.08L199.81-38.08Q197.44-38.08 194.59-37.41L194.59-37.41L194.59-37.41Q191.74-36.74 191.74-35.84L191.74-35.84L191.74 0L180.54 0ZM230.53 0.51L230.53 0.51Q224.51 0.51 220.90-3.26L220.90-3.26L220.90-3.26Q217.28-7.04 217.28-13.63L217.28-13.63L217.28-38.98L217.28-38.98Q217.28-47.17 220.54-51.33L220.54-51.33L220.54-51.33Q223.81-55.49 230.78-55.49L230.78-55.49L230.78-55.49Q236.86-55.49 240.58-52.16L240.58-52.16L240.58-52.16Q244.29-48.83 244.29-42.56L244.29-42.56L244.29-33.09L233.34-33.09L233.34-41.22L233.34-41.22Q233.34-43.58 232.77-44.48L232.77-44.48L232.77-44.48Q232.19-45.38 230.78-45.38L230.78-45.38L230.78-45.38Q229.31-45.38 228.77-44.35L228.77-44.35L228.77-44.35Q228.22-43.33 228.22-41.34L228.22-41.34L228.22-13.76L228.22-13.76Q228.22-11.58 228.86-10.59L228.86-10.59L228.86-10.59Q229.50-9.60 230.78-9.60L230.78-9.60L230.78-9.60Q233.34-9.60 233.34-13.76L233.34-13.76L233.34-23.68L244.42-23.68L244.42-13.31L244.42-13.31Q244.42 0.51 230.53 0.51L230.53 0.51ZM261.50 0.51L261.50 0.51Q247.49 0.51 247.49-14.02L247.49-14.02L247.49-32.83L247.49-32.83Q247.49-39.49 251.23-43.42L251.23-43.42L251.23-43.42Q254.98-47.36 261.50-47.36L261.50-47.36L261.50-47.36Q268.03-47.36 271.78-43.42L271.78-43.42L271.78-43.42Q275.52-39.49 275.52-32.83L275.52-32.83L275.52-14.02L275.52-14.02Q275.52 0.51 261.50 0.51L261.50 0.51ZM261.50-8.13L261.50-8.13Q262.85-8.13 263.49-9.09L263.49-9.09L263.49-9.09Q264.13-10.05 264.13-11.71L264.13-11.71L264.13-34.62L264.13-34.62Q264.13-38.72 261.50-38.72L261.50-38.72L261.50-38.72Q258.88-38.72 258.88-34.62L258.88-34.62L258.88-11.71L258.88-11.71Q258.88-10.05 259.52-9.09L259.52-9.09L259.52-9.09Q260.16-8.13 261.50-8.13L261.50-8.13ZM279.68 0L279.68-46.85L290.62-46.85L290.62-41.41L290.62-41.41Q291.39-44.42 293.25-45.89L293.25-45.89L293.25-45.89Q295.10-47.36 298.50-47.36L298.50-47.36L298.50-47.36Q301.25-47.36 303.26-46.11L303.26-46.11L303.26-46.11Q305.28-44.86 306.11-42.69L306.11-42.69L306.11-42.69Q307.52-45.12 309.25-46.24L309.25-46.24L309.25-46.24Q310.98-47.36 314.05-47.36L314.05-47.36L314.05-47.36Q319.55-47.36 321.70-44L321.70-44L321.70-44Q323.84-40.64 323.84-34.24L323.84-34.24L323.71 0L312.45 0L312.45-34.43L312.45-34.43Q312.45-38.98 310.14-38.98L310.14-38.98L310.14-38.98Q308.54-38.98 307.84-37.41L307.84-37.41L307.84-37.41Q307.14-35.84 307.14-33.66L307.14-33.66L307.14 0L295.94 0L295.94-34.43L295.94-34.43Q295.94-36.42 295.52-37.63L295.52-37.63L295.52-37.63Q295.10-38.85 293.76-38.85L293.76-38.85L293.76-38.85Q292.03-38.85 291.33-37.15L291.33-37.15L291.33-37.15Q290.62-35.46 290.62-33.09L290.62-33.09L290.62 0L279.68 0ZM328.19 9.34L328.19-46.85L339.58-46.85L339.58-44.35L339.58-44.35Q342.02-47.36 346.30-47.36L346.30-47.36L346.30-47.36Q351.74-47.36 353.89-43.71L353.89-43.71L353.89-43.71Q356.03-40.06 356.03-33.60L356.03-33.60L356.03-16.26L356.03-16.26Q356.03-10.75 355.39-7.26L355.39-7.26L355.39-7.26Q354.75-3.78 352.58-1.63L352.58-1.63L352.58-1.63Q350.40 0.51 345.98 0.51L345.98 0.51L345.98 0.51Q341.76 0.51 339.58-1.86L339.58-1.86L339.58 9.34L328.19 9.34ZM342.27-8.19L342.27-8.19Q343.81-8.19 344.26-9.60L344.26-9.60L344.26-9.60Q344.70-11.01 344.70-13.70L344.70-13.70L344.70-33.60L344.70-33.60Q344.70-36.03 344.26-37.31L344.26-37.31L344.26-37.31Q343.81-38.59 342.21-38.59L342.21-38.59L342.21-38.59Q339.58-38.59 339.58-33.73L339.58-33.73L339.58-13.18L339.58-13.18Q339.58-10.82 340.13-9.50L340.13-9.50L340.13-9.50Q340.67-8.19 342.27-8.19L342.27-8.19ZM373.31 0.51L373.31 0.51Q366.08 0.51 362.94-3.46L362.94-3.46L362.94-3.46Q359.81-7.42 359.81-15.30L359.81-15.30L359.81-34.11L359.81-34.11Q359.81-40.58 363.52-43.97L363.52-43.97L363.52-43.97Q367.23-47.36 373.89-47.36L373.89-47.36L373.89-47.36Q387.39-47.36 387.39-34.11L387.39-34.11L387.39-30.72L387.39-30.72Q387.39-25.60 387.26-22.40L387.26-22.40L371.01-22.40L371.01-13.31L371.01-13.31Q371.01-10.88 371.52-9.50L371.52-9.50L371.52-9.50Q372.03-8.13 373.70-8.13L373.70-8.13L373.70-8.13Q374.98-8.13 375.52-8.90L375.52-8.90L375.52-8.90Q376.06-9.66 376.16-10.66L376.16-10.66L376.16-10.66Q376.26-11.65 376.26-13.57L376.26-13.57L376.26-18.11L387.39-18.11L387.39-15.42L387.39-15.42Q387.39-7.23 384.22-3.36L384.22-3.36L384.22-3.36Q381.06 0.51 373.31 0.51L373.31 0.51ZM370.94-27.97L376.26-27.97L376.26-33.98L376.26-33.98Q376.26-39.04 373.76-39.04L373.76-39.04L373.76-39.04Q370.94-39.04 370.94-33.98L370.94-33.98L370.94-27.97ZM401.09 0.51L401.09 0.51Q396.67 0.51 395.01-1.34L395.01-1.34L395.01-1.34Q393.34-3.20 393.34-7.30L393.34-7.30L393.34-36.54L390.21-36.54L390.21-45.06L393.34-45.06L393.34-54.98L404.22-54.98L404.22-45.06L407.42-45.06L407.42-36.54L404.22-36.54L404.22-10.24L404.22-10.24Q404.22-9.02 404.42-8.45L404.42-8.45L404.42-8.45Q404.61-7.87 405.44-7.87L405.44-7.87L405.44-7.87Q406.08-7.87 406.66-7.94L406.66-7.94L406.66-7.94Q407.23-8 407.42-8L407.42-8L407.42-0.32L407.42-0.32Q406.46-0.06 404.64 0.22L404.64 0.22L404.64 0.22Q402.82 0.51 401.09 0.51L401.09 0.51ZM422.08-49.98L410.88-49.98L410.88-57.79L422.08-57.79L422.08-49.98ZM422.08 0L410.88 0L410.88-46.85L422.08-46.85L422.08 0ZM436.16 0.51L436.16 0.51Q431.74 0.51 430.08-1.34L430.08-1.34L430.08-1.34Q428.42-3.20 428.42-7.30L428.42-7.30L428.42-36.54L425.28-36.54L425.28-45.06L428.42-45.06L428.42-54.98L439.30-54.98L439.30-45.06L442.50-45.06L442.50-36.54L439.30-36.54L439.30-10.24L439.30-10.24Q439.30-9.02 439.49-8.45L439.49-8.45L439.49-8.45Q439.68-7.87 440.51-7.87L440.51-7.87L440.51-7.87Q441.15-7.87 441.73-7.94L441.73-7.94L441.73-7.94Q442.30-8 442.50-8L442.50-8L442.50-0.32L442.50-0.32Q441.54-0.06 439.71 0.22L439.71 0.22L439.71 0.22Q437.89 0.51 436.16 0.51L436.16 0.51ZM457.15-49.98L445.95-49.98L445.95-57.79L457.15-57.79L457.15-49.98ZM457.15 0L445.95 0L445.95-46.85L457.15-46.85L457.15 0ZM475.20 0.51L475.20 0.51Q461.18 0.51 461.18-14.02L461.18-14.02L461.18-32.83L461.18-32.83Q461.18-39.49 464.93-43.42L464.93-43.42L464.93-43.42Q468.67-47.36 475.20-47.36L475.20-47.36L475.20-47.36Q481.73-47.36 485.47-43.42L485.47-43.42L485.47-43.42Q489.22-39.49 489.22-32.83L489.22-32.83L489.22-14.02L489.22-14.02Q489.22 0.51 475.20 0.51L475.20 0.51ZM475.20-8.13L475.20-8.13Q476.54-8.13 477.18-9.09L477.18-9.09L477.18-9.09Q477.82-10.05 477.82-11.71L477.82-11.71L477.82-34.62L477.82-34.62Q477.82-38.72 475.20-38.72L475.20-38.72L475.20-38.72Q472.58-38.72 472.58-34.62L472.58-34.62L472.58-11.71L472.58-11.71Q472.58-10.05 473.22-9.09L473.22-9.09L473.22-9.09Q473.86-8.13 475.20-8.13L475.20-8.13ZM493.38 0L493.38-46.85L504.58-46.85L504.58-40.90L504.58-40.90Q505.28-43.78 507.01-45.57L507.01-45.57L507.01-45.57Q508.74-47.36 511.62-47.36L511.62-47.36L511.62-47.36Q516.35-47.36 518.62-44.45L518.62-44.45L518.62-44.45Q520.90-41.54 520.90-36.16L520.90-36.16L520.90 0L509.89 0L509.89-35.01L509.89-35.01Q509.89-36.54 509.28-37.63L509.28-37.63L509.28-37.63Q508.67-38.72 507.39-38.72L507.39-38.72L507.39-38.72Q505.66-38.72 505.12-37.15L505.12-37.15L505.12-37.15Q504.58-35.58 504.58-32.96L504.58-32.96L504.58 0L493.38 0ZM538.18 0.51L538.18 0.51Q524.29 0.51 524.29-13.57L524.29-13.57L524.35-17.28L535.55-17.28L535.62-11.78L535.62-11.78Q535.62-10.11 536.26-9.25L536.26-9.25L536.26-9.25Q536.90-8.38 538.37-8.38L538.37-8.38L538.37-8.38Q540.61-8.38 540.61-12.03L540.61-12.03L540.61-12.03Q540.61-14.72 539.55-16.26L539.55-16.26L539.55-16.26Q538.50-17.79 536.19-19.52L536.19-19.52L530.24-24.13L530.24-24.13Q527.17-26.50 525.82-29.02L525.82-29.02L525.82-29.02Q524.48-31.55 524.48-36.16L524.48-36.16L524.48-36.16Q524.48-39.74 526.37-42.27L526.37-42.27L526.37-42.27Q528.26-44.80 531.39-46.08L531.39-46.08L531.39-46.08Q534.53-47.36 538.37-47.36L538.37-47.36L538.37-47.36Q552-47.36 552-33.79L552-33.79L552-32.90L540.42-32.90L540.42-34.69L540.42-34.69Q540.42-36.35 539.87-37.54L539.87-37.54L539.87-37.54Q539.33-38.72 538.05-38.72L538.05-38.72L538.05-38.72Q536.90-38.72 536.29-38.05L536.29-38.05L536.29-38.05Q535.68-37.38 535.68-36.22L535.68-36.22L535.68-36.22Q535.68-33.66 537.66-32.26L537.66-32.26L544.58-27.20L544.58-27.20Q548.29-24.45 550.27-21.22L550.27-21.22L550.27-21.22Q552.26-17.98 552.26-13.06L552.26-13.06L552.26-13.06Q552.26-6.53 548.54-3.01L548.54-3.01L548.54-3.01Q544.83 0.51 538.18 0.51L538.18 0.51Z" fill="url(#editing-outline-gradient)"></path></g></g><style>text {
  font-size: 64px;
  font-family: Arial Black;
  dominant-baseline: central;
  text-anchor: middle;
}</style></svg>